<?xml version="1.0" standalone="no"?>
<!DOCTYPE svg PUBLIC "-//W3C//DTD SVG 20010904//EN"
 "http://www.w3.org/TR/2001/REC-SVG-20010904/DTD/svg10.dtd">
<svg version="1.0" xmlns="http://www.w3.org/2000/svg"
 width="512.000000pt" height="512.000000pt" viewBox="0 0 512.000000 512.000000"
 preserveAspectRatio="xMidYMid meet">

<g transform="translate(0.000000,512.000000) scale(0.100000,-0.100000)"
fill="#000000" stroke="none">
<path d="M2440 4349 c-716 -42 -1360 -543 -1585 -1231 -68 -210 -80 -295 -80
-558 0 -209 3 -247 24 -345 95 -444 334 -825 683 -1087 639 -481 1517 -481
2156 0 349 262 588 643 683 1087 21 98 24 136 24 345 0 206 -3 248 -23 343
-106 501 -401 926 -827 1187 -233 143 -538 243 -785 256 -52 3 -108 6 -125 7
-16 2 -82 0 -145 -4z m946 -1074 c63 -18 125 -71 153 -130 28 -60 29 -162 1
-219 -13 -27 -194 -215 -532 -553 -508 -506 -514 -512 -571 -528 -68 -20 -130
-14 -192 17 -55 28 -626 597 -658 657 -92 169 24 373 212 375 105 0 118 -8
348 -237 l213 -211 407 406 c375 373 412 407 458 421 64 20 100 20 161 2z"/>
</g>
</svg>
