<?xml version="1.0" standalone="no"?>
<!DOCTYPE svg PUBLIC "-//W3C//DTD SVG 20010904//EN"
 "http://www.w3.org/TR/2001/REC-SVG-20010904/DTD/svg10.dtd">
<svg version="1.0" xmlns="http://www.w3.org/2000/svg"
 width="512.000000pt" height="512.000000pt" viewBox="0 0 512.000000 512.000000"
 preserveAspectRatio="xMidYMid meet">

<g transform="translate(0.000000,512.000000) scale(0.100000,-0.100000)"
fill="#000000" stroke="none">
<path d="M2370 5113 c-379 -36 -661 -116 -980 -278 -378 -193 -717 -497 -965
-865 -104 -156 -232 -419 -294 -605 -49 -150 -89 -321 -113 -490 -17 -118 -17
-512 0 -630 42 -295 120 -553 242 -800 137 -280 272 -468 494 -691 221 -220
412 -357 681 -489 188 -92 309 -137 500 -185 500 -126 1002 -102 1490 71 149
53 407 182 540 271 299 199 573 480 769 788 72 113 188 353 235 486 235 662
194 1372 -115 1993 -124 250 -263 447 -458 648 -216 224 -428 378 -711 518
-296 146 -572 225 -900 255 -102 9 -333 11 -415 3z m473 -224 c907 -111 1668
-742 1951 -1616 125 -389 145 -822 55 -1226 -73 -331 -237 -673 -455 -949 -74
-94 -278 -298 -372 -372 -345 -272 -752 -442 -1190 -497 -222 -28 -548 -11
-784 42 -235 52 -514 165 -717 292 -206 128 -467 359 -605 535 -273 347 -441
751 -497 1190 -16 125 -16 419 0 547 41 332 165 683 339 963 171 275 456 564
724 736 165 105 363 198 558 261 176 57 345 89 580 109 67 6 319 -3 413 -15z"/>
<path d="M1553 3614 c-29 -15 -63 -65 -63 -94 0 -7 7 -27 16 -45 32 -68 -24
-65 1054 -65 1078 0 1022 -3 1054 65 9 18 16 38 16 45 0 7 -7 27 -16 45 -32
68 24 65 -1056 65 -863 0 -977 -2 -1005 -16z"/>
<path d="M1553 2654 c-29 -15 -63 -65 -63 -94 0 -7 7 -27 16 -45 32 -68 -24
-65 1054 -65 1078 0 1022 -3 1054 65 9 18 16 38 16 45 0 7 -7 27 -16 45 -32
68 24 65 -1056 65 -863 0 -977 -2 -1005 -16z"/>
<path d="M1553 1694 c-29 -15 -63 -65 -63 -94 0 -7 7 -27 16 -45 32 -68 -24
-65 1054 -65 1078 0 1022 -3 1054 65 9 18 16 38 16 45 0 7 -7 27 -16 45 -32
68 24 65 -1056 65 -863 0 -977 -2 -1005 -16z"/>
</g>
</svg>
